<svg width="129" height="129" viewBox="0 0 129 129" fill="none" xmlns="http://www.w3.org/2000/svg">
<g clip-path="url(#clip0_18700_5)">
<path d="M35.6078 98.6949L63.2898 117.569C64.0483 118.083 65.0434 118.083 65.8008 117.569L93.4915 98.696C101.267 93.394 107.609 81.4324 107.609 72.0296V32.4273C107.603 31.5776 107.114 30.805 106.351 30.4328L65.536 10.3902C64.9175 10.0874 64.1937 10.0874 63.5752 10.3902L22.7564 30.372C21.9892 30.7431 21.4998 31.5157 21.4922 32.3676V72.0296C21.4922 81.4324 27.8338 93.394 35.6078 98.6949V98.6949ZM25.9369 33.7533L64.5464 14.8609L103.165 33.8119V72.0296C103.165 79.8622 97.4664 90.6062 90.9881 95.0228L64.5594 113.043L38.1166 95.0228C31.6394 90.6062 25.9369 79.8622 25.9369 72.0296V33.7533Z" fill="white"/>
<path d="M30.449 106.234L63.2832 128.614C64.0439 129.129 65.0412 129.129 65.8019 128.614L98.6557 106.235C108.796 99.3214 116.78 84.2965 116.78 72.03V26.7437C116.765 25.8896 116.269 25.1181 115.499 24.7481L65.5545 0.227067C64.9338 -0.0756888 64.2078 -0.0756888 63.5871 0.227067L13.6162 24.6808C12.8436 25.0487 12.3455 25.8213 12.3281 26.6764V72.03C12.3281 84.2965 20.3094 99.3214 30.449 106.234V106.234ZM16.7729 28.0621L64.555 4.69786L112.336 28.1272V72.03C112.336 82.9791 105.208 96.3904 96.1544 102.563L64.5724 124.088L32.9632 102.562C23.912 96.3915 16.7729 82.9791 16.7729 72.03V28.0621Z" fill="white"/>
<path d="M56.7206 84.9733C57.1383 85.3889 57.7059 85.6189 58.2951 85.6124H58.3005C58.8865 85.62 59.4529 85.3921 59.8718 84.9819L91.4473 53.4151C91.8651 52.9995 92.0995 52.4352 92.0995 51.846C92.0995 51.2567 91.8651 50.6925 91.4473 50.2768L85.1622 43.9939C84.2941 43.1257 82.8866 43.1257 82.0185 43.9939L58.3385 67.675L47.1268 56.3526C46.263 55.4801 44.8556 55.4736 43.9831 56.3374L37.6665 62.5922C37.2476 63.0078 37.0111 63.572 37.0078 64.1613C37.0057 64.7473 37.2368 65.3104 37.6513 65.726L56.7206 84.9733ZM45.5316 61.061L56.752 72.4214C57.1644 72.85 57.7308 73.0985 58.3255 73.1105H58.3309C58.9245 73.0996 59.4888 72.8544 59.9022 72.429L83.5909 48.7262L86.7335 51.8612L58.3081 80.2833L42.3739 64.1917L45.5316 61.061Z" fill="white"/>
</g>
<defs>
<clipPath id="clip0_18700_5">
<rect width="129" height="129" fill="white"/>
</clipPath>
</defs>
</svg>
